<svg width="37" height="37" viewBox="0 0 37 37" fill="none" xmlns="http://www.w3.org/2000/svg">
<g clip-path="url(#clip0_26_5)">
<path d="M21.978 33.5222L18.5 37.0002L15.022 33.5222C8.18629 31.9435 3.08337 25.8138 3.08337 18.5002C3.08337 9.99016 9.99004 3.0835 18.5 3.0835C27.01 3.0835 33.9167 9.99016 33.9167 18.5002C33.9167 25.8138 28.8138 31.9435 21.978 33.5222ZM9.2855 23.7665C11.5487 27.1427 14.9465 29.2918 18.7467 29.2918C22.5454 29.2918 25.9447 27.1443 28.2064 23.7665C25.6406 21.3686 22.2585 20.0369 18.7467 20.0418C15.2343 20.0365 11.8516 21.3682 9.2855 23.7665ZM18.5 16.9585C19.7267 16.9585 20.9031 16.4712 21.7704 15.6039C22.6378 14.7365 23.125 13.5601 23.125 12.3335C23.125 11.1069 22.6378 9.93048 21.7704 9.06313C20.9031 8.19577 19.7267 7.7085 18.5 7.7085C17.2734 7.7085 16.097 8.19577 15.2297 9.06313C14.3623 9.93048 13.875 11.1069 13.875 12.3335C13.875 13.5601 14.3623 14.7365 15.2297 15.6039C16.097 16.4712 17.2734 16.9585 18.5 16.9585Z" fill="#EEC71B"/>
</g>
<defs>
<clipPath id="clip0_26_5">
<rect width="37" height="37" fill="white"/>
</clipPath>
</defs>
</svg>
