<svg width="46" height="41" viewBox="0 0 46 41" fill="none" xmlns="http://www.w3.org/2000/svg">
<g clip-path="url(#clip0_39_216)">
<path d="M46 8.64179C45.7636 9.48494 45.5092 10.3232 45.2931 11.1712C43.8113 16.9926 42.3379 22.8164 40.8621 28.639C40.6066 29.6471 40.1922 29.9721 39.1749 29.9721C31.2537 29.9721 23.3325 29.9721 15.4113 29.9721C14.4203 29.9721 14 29.6349 13.7528 28.661C11.5928 20.1489 9.43164 11.638 7.27044 3.12592C7.24059 3.00984 7.19761 2.8962 7.15104 2.74956C6.57074 2.74956 5.98925 2.74956 5.40656 2.74956C4.07402 2.74956 2.74149 2.75812 1.40895 2.7459C0.568353 2.73857 -0.00955764 2.14837 -5.40447e-06 1.34799C0.00954683 0.572054 0.588651 0.00751448 1.41014 0.00507058C3.62626 -0.00103915 5.84238 -0.00103915 8.0585 0.00507058C8.84895 0.00751448 9.31462 0.372877 9.52 1.16103C9.97492 2.90109 10.4143 4.64603 10.8609 6.38852C10.8943 6.52049 10.9337 6.65002 10.9791 6.80887H11.5689C22.4704 6.80887 33.3707 6.81376 44.2722 6.7991C45.077 6.7991 45.6597 7.05326 46 7.81331V8.64057V8.64179ZM12.6878 13.5919H20.806V9.58636H11.6681C12.0107 10.9342 12.3451 12.2465 12.6878 13.5919ZM33.8089 9.57292V13.5907H41.9176C42.2591 12.2453 42.5958 10.9207 42.9385 9.57292H33.8089ZM31.077 9.58636H23.5355V13.5785H31.077V9.58636ZM23.5248 20.392H31.0663V16.3865H23.5248V20.392ZM31.0818 23.2037H23.5307V27.2056H31.0818V23.2037ZM13.4006 16.3841C13.7098 17.6072 14.0251 18.8145 14.3152 20.0279C14.3881 20.3334 14.5051 20.4385 14.8251 20.4348C16.6806 20.4165 18.5361 20.4263 20.3916 20.425C20.523 20.425 20.6531 20.4104 20.8072 20.4006V16.3841H13.4018H13.4006ZM33.797 20.4263C35.8746 20.4263 37.9069 20.4311 39.9379 20.4116C40.0478 20.4116 40.2161 20.2185 40.2531 20.0853C40.5254 19.1029 40.7713 18.1131 41.0221 17.1246C41.083 16.8838 41.1284 16.6382 41.1809 16.3963H33.7958V20.4263H33.797ZM15.1272 23.1793C15.4591 24.4953 15.7707 25.7649 16.111 27.0272C16.1373 27.125 16.3558 27.2227 16.4884 27.2264C17.1749 27.2459 17.8627 27.2362 18.5504 27.2362C19.2943 27.2362 20.037 27.2362 20.794 27.2362V23.1805H15.1272V23.1793ZM33.7934 27.2362H37.5045C38.4466 27.2362 38.4501 27.2362 38.6878 26.3087C38.9504 25.2798 39.2072 24.2485 39.471 23.1989H33.7934V27.2349V27.2362Z" fill="#EEC71B"/>
<path d="M40.8024 36.0451C40.7965 38.7799 38.6198 41.0038 35.9535 41.0001C33.3147 40.9965 31.0938 38.7163 31.1045 36.0219C31.1153 33.2884 33.3266 31.0645 36.0204 31.0767C38.6627 31.0889 40.8084 33.3178 40.8024 36.0439V36.0451ZM35.9583 33.82C34.7654 33.8224 33.7851 34.8159 33.7815 36.028C33.778 37.2329 34.7654 38.2483 35.9475 38.2532C37.1714 38.2581 38.1398 37.2646 38.129 36.0158C38.1183 34.7768 37.169 33.8175 35.9583 33.82Z" fill="#EEC71B"/>
<path d="M23.4913 36.0864C23.4209 38.9066 21.2 41.0707 18.4537 40.9974C15.9021 40.9289 13.717 38.5816 13.7863 35.98C13.8615 33.1207 16.0752 31.0055 18.9158 31.08C21.391 31.1448 23.5558 33.5117 23.4913 36.0864ZM18.6221 33.8196C17.4305 33.8257 16.4478 34.8339 16.4561 36.0399C16.4657 37.2729 17.4615 38.2639 18.6806 38.2529C19.8436 38.2419 20.8036 37.2533 20.8227 36.0497C20.8418 34.8302 19.84 33.8148 18.6221 33.8209V33.8196Z" fill="#EEC71B"/>
</g>
<defs>
<clipPath id="clip0_39_216">
<rect width="46" height="41" fill="white"/>
</clipPath>
</defs>
</svg>
