<svg width="74" height="74" viewBox="0 0 74 74" fill="none" xmlns="http://www.w3.org/2000/svg">
<g clip-path="url(#clip0_26_17)">
<path d="M74 37.0009C74 57.4364 57.4345 74.0019 36.9991 74.0019C16.5655 74 0 57.4345 0 37.0009C0 16.5655 16.5655 0 37.0009 0C57.4364 0 74.0019 16.5655 74.0019 37.0009H74Z" fill="white"/>
<path d="M47.9627 34.1331L47.3462 39.0832C47.2419 39.9119 46.5417 40.5321 45.7111 40.5321H37.6937V61.2283C36.8482 61.3046 35.9915 61.3437 35.1256 61.3437C33.1887 61.3437 31.2984 61.15 29.4715 60.7813V40.5321H23.3053C22.7391 40.5321 22.2773 40.0684 22.2773 39.5004V33.3062C22.2773 32.7382 22.7391 32.2745 23.3053 32.2745H29.4715V22.9851C29.4715 17.2845 34.0733 12.6641 39.7516 12.6641H46.9458C47.512 12.6641 47.9738 13.1278 47.9738 13.6958V19.8899C47.9738 20.4579 47.512 20.9217 46.9458 20.9217H41.8058C39.5356 20.9217 37.6956 22.7691 37.6956 25.0505V32.2763H46.3294C47.3201 32.2763 48.0856 33.1479 47.9645 34.135L47.9627 34.1331Z" fill="#111113"/>
</g>
<defs>
<clipPath id="clip0_26_17">
<rect width="74" height="74" fill="white"/>
</clipPath>
</defs>
</svg>
