<svg width="33" height="46" viewBox="0 0 33 46" fill="none" xmlns="http://www.w3.org/2000/svg">
<path fill-rule="evenodd" clip-rule="evenodd" d="M32.5377 16.3283C32.5377 16.9128 32.5069 17.4901 32.4468 18.0587C32.3025 21.6658 29.3761 30.231 16.0264 45.2239C4.12883 30.8977 0 23.6132 0 16.5715H0.00207033C0.000883798 16.4906 0.000288469 16.4095 0.000288469 16.3283C0.000288469 7.34332 7.28403 0.0595703 16.269 0.0595703C25.2539 0.0595703 32.5377 7.34332 32.5377 16.3283ZM16.2701 25.7981C20.6955 25.7981 24.283 22.2106 24.283 17.7851C24.283 13.3597 20.6955 9.77221 16.2701 9.77221C11.8447 9.77221 8.25714 13.3597 8.25714 17.7851C8.25714 22.2106 11.8447 25.7981 16.2701 25.7981Z" fill="#EEC71B"/>
</svg>
