<svg width="74" height="74" viewBox="0 0 74 74" fill="none" xmlns="http://www.w3.org/2000/svg">
<g clip-path="url(#clip0_26_21)">
<path d="M74 37.0009C74 57.4364 57.4345 74.0019 37.0009 74.0019C16.5655 74 0 57.4345 0 37.0009C0 16.5655 16.5655 0 37.0009 0C57.4345 0 74 16.5655 74 37.0009Z" fill="white"/>
<path d="M53.0618 46.3705C53.0618 50.0654 50.0634 53.0638 46.3704 53.0638H27.6315C23.9367 53.0638 20.9383 50.0654 20.9383 46.3705V27.6317C20.9383 23.9368 23.9367 20.9403 27.6315 20.9403H46.3704C50.0634 20.9403 53.0618 23.9386 53.0618 27.6317V46.3705ZM47.039 17.5918H26.9611C21.7894 17.5918 17.5917 21.7876 17.5917 26.9612V47.0391C17.5917 52.2127 21.7894 56.4085 26.9611 56.4085H47.039C52.2125 56.4085 56.4084 52.2127 56.4084 47.0391V26.9612C56.4084 21.7876 52.2125 17.5918 47.039 17.5918Z" fill="#111113"/>
<path d="M37.0196 43.6922C33.3321 43.6922 30.3263 40.6882 30.3263 36.9989C30.3263 33.3096 33.3321 30.3057 37.0196 30.3057C40.707 30.3057 43.7128 33.3115 43.7128 36.9989C43.7128 40.6864 40.707 43.6922 37.0196 43.6922ZM37.0196 26.9609C31.4773 26.9609 26.9816 31.4585 26.9816 36.9989C26.9816 42.5394 31.4773 47.0369 37.0196 47.0369C42.5619 47.0369 47.0576 42.5394 47.0576 36.9989C47.0576 31.4585 42.56 26.9609 37.0196 26.9609Z" fill="#111113"/>
<path d="M47.728 28.2999C46.6199 28.2999 45.7204 27.3985 45.7204 26.2923C45.7204 25.186 46.6199 24.2847 47.728 24.2847C48.8361 24.2847 49.7356 25.186 49.7356 26.2923C49.7356 27.3985 48.8342 28.2999 47.728 28.2999Z" fill="#111113"/>
</g>
<defs>
<clipPath id="clip0_26_21">
<rect width="74" height="74" fill="white"/>
</clipPath>
</defs>
</svg>
