<svg width="74" height="74" viewBox="0 0 74 74" fill="none" xmlns="http://www.w3.org/2000/svg">
<g clip-path="url(#clip0_26_27)">
<path d="M74 36.9991C74 57.4345 57.4345 74 37.0009 74C16.5655 74 0 57.4345 0 36.9991C0 16.5655 16.5655 0 37.0009 0C57.4364 0 74 16.5655 74 36.9991Z" fill="white"/>
<path d="M44.3329 46.5323V28.1994C44.3329 28.1994 46.4001 31.6447 53.8718 31.8552C54.2704 31.8682 54.6 31.5404 54.6 31.1419V25.959C54.6 25.5735 54.2927 25.2681 53.9072 25.2457C48.1116 24.918 45.3591 20.4744 45.089 16.3978C45.0648 16.0197 44.7333 15.7329 44.3553 15.7329H38.4461C38.0531 15.7329 37.7328 16.0514 37.7328 16.4462V45.5899C37.7328 48.7559 35.3136 51.5103 32.1514 51.6593C28.5366 51.8306 25.5978 48.7279 26.0448 45.0629C26.3595 42.4724 28.4397 40.3512 31.0228 39.9917C31.5368 39.921 32.0396 39.9154 32.5239 39.9694C32.9541 40.0178 33.3321 39.6975 33.3321 39.2654V34.0714C33.3321 33.7007 33.0509 33.3823 32.6822 33.3599C31.9409 33.3115 31.1811 33.3283 30.4101 33.4158C24.7095 34.062 20.1095 38.675 19.4782 44.3757C18.6457 51.8995 24.5121 58.2668 31.8665 58.2668C38.7515 58.2668 44.3329 52.6854 44.3329 45.8004" fill="#111113"/>
</g>
<defs>
<clipPath id="clip0_26_27">
<rect width="74" height="74" fill="white"/>
</clipPath>
</defs>
</svg>
