<svg width="41" height="41" viewBox="0 0 41 41" fill="none" xmlns="http://www.w3.org/2000/svg">
<g clip-path="url(#clip0_29_157)">
<path d="M41 20.4995C41 31.8218 31.8218 41 20.5005 41C9.17818 41 0 31.8218 0 20.4995C0 9.17818 9.17818 0 20.5005 0C31.8218 0 41 9.17818 41 20.4995Z" fill="#111113"/>
<path d="M20.8358 29.433C19.0445 29.433 17.3678 28.9491 15.9243 28.105C15.7881 28.0287 15.657 27.9471 15.5291 27.8625L11.5937 28.9109L12.642 24.9755C11.6483 23.4473 11.0715 21.6261 11.0715 19.6687C11.0715 14.2856 15.4527 9.90447 20.8358 9.90447C26.2189 9.90447 30.6011 14.2856 30.6011 19.6687C30.6011 25.0518 26.2189 29.433 20.8358 29.433ZM20.4262 7.36409C14.0897 7.56942 8.85722 12.7007 8.54045 19.0321C8.42591 21.3145 8.92945 23.4721 9.90866 25.3449L8.53322 31.5049C8.47441 31.7835 8.72102 32.0301 8.99961 31.9723L15.1597 30.5969H15.1638C17.0242 31.5689 19.1591 32.0724 21.425 31.9672C27.746 31.6741 32.8938 26.4809 33.1384 20.1578C33.4149 12.9958 27.5778 7.13192 20.4262 7.36409Z" fill="white"/>
<path d="M26.6266 23.9676C26.4564 24.2225 26.2779 24.4608 25.9931 24.7466C25.3668 25.3719 24.499 25.6877 23.6178 25.5979C22.0381 25.4359 19.7949 24.563 17.8674 22.6396C15.9389 20.7111 15.066 18.4679 14.9091 16.8892C14.8193 16.008 15.1341 15.1392 15.7604 14.5139C16.0452 14.2291 16.2835 14.0496 16.5394 13.8752C17.012 13.5564 17.6538 13.7689 17.8333 14.3055L18.4803 16.2464C18.6588 16.7788 18.5783 17.1142 18.3482 17.3401L17.8323 17.8602C17.5774 18.115 17.5351 18.5113 17.7302 18.8177C18.016 19.2645 18.5525 19.9796 19.54 20.967C20.5275 21.9545 21.2425 22.491 21.6893 22.7758C21.9958 22.9719 22.392 22.9296 22.6469 22.6737L23.1669 22.1588C23.3918 21.9287 23.7282 21.8482 24.2606 22.0267L26.2015 22.6737C26.7381 22.8522 26.9506 23.495 26.6266 23.9676Z" fill="white"/>
</g>
<defs>
<clipPath id="clip0_29_157">
<rect width="41" height="41" fill="white"/>
</clipPath>
</defs>
</svg>
