<svg width="74" height="74" viewBox="0 0 74 74" fill="none" xmlns="http://www.w3.org/2000/svg">
<g clip-path="url(#clip0_26_31)">
<path d="M74 36.9991C74 57.4345 57.4345 74 37.0009 74C16.5655 74 0 57.4345 0 36.9991C0 16.5655 16.5655 0 37.0009 0C57.4345 0 74 16.5655 74 36.9991Z" fill="white"/>
<path d="M37.6062 53.123C34.3732 53.123 31.3469 52.2496 28.7414 50.7262C28.4956 50.5884 28.2591 50.4412 28.0282 50.2885L20.9252 52.1807L22.8174 45.0777C21.0239 42.3196 19.9829 39.0326 19.9829 35.4997C19.9829 25.7839 27.8904 17.8764 37.6062 17.8764C47.322 17.8764 55.2313 25.7839 55.2313 35.4997C55.2313 45.2155 47.322 53.123 37.6062 53.123ZM36.8668 13.2913C25.4302 13.6619 15.9863 22.9233 15.4146 34.3506C15.2078 38.4701 16.1167 42.3643 17.884 45.7444L15.4015 56.8626C15.2954 57.3654 15.7405 57.8105 16.2433 57.7062L27.3615 55.2237H27.3689C30.7267 56.9781 34.5799 57.8869 38.6696 57.6969C50.0783 57.168 59.3695 47.7949 59.8108 36.3825C60.3099 23.456 49.7747 12.8723 36.8668 13.2913Z" fill="#111113"/>
<path d="M48.0576 43.2585C47.7503 43.7185 47.4282 44.1487 46.9142 44.6646C45.7837 45.7932 44.2175 46.3631 42.627 46.201C39.7758 45.9087 35.7271 44.3331 32.2482 40.8617C28.7675 37.381 27.192 33.3323 26.9089 30.4829C26.7469 28.8925 27.3149 27.3244 28.4453 26.1958C28.9594 25.6818 29.3895 25.3578 29.8514 25.043C30.7044 24.4676 31.8627 24.8512 32.1868 25.8196L33.3545 29.3227C33.6767 30.2836 33.5314 30.8889 33.1161 31.2968L32.1849 32.2354C31.7249 32.6954 31.6486 33.4105 32.0005 33.9636C32.5164 34.77 33.4848 36.0606 35.2671 37.8429C37.0493 39.6251 38.3399 40.5935 39.1463 41.1075C39.6995 41.4614 40.4146 41.385 40.8746 40.9232L41.8132 39.9939C42.2192 39.5786 42.8263 39.4333 43.7873 39.7555L47.2903 40.9232C48.2588 41.2454 48.6424 42.4056 48.0576 43.2585Z" fill="#111113"/>
</g>
<defs>
<clipPath id="clip0_26_31">
<rect width="74" height="74" fill="white"/>
</clipPath>
</defs>
</svg>
